HIERARCHY
ROOT Bip001_Pelvis
{
  OFFSET 34.4345 95.6767 -26.8758
  CHANNELS 6 Xposition Yposition Zposition Zrotation Xrotation Yrotation
  JOINT Bip001_Spine
  {
    OFFSET 1.4188e-005 10.2191 -0.0116013
    CHANNELS 3 Zrotation Xrotation Yrotation
    JOINT Bip001_L_Thigh
    {
      OFFSET 11.0458 -10.2192 0.0116197
      CHANNELS 3 Zrotation Xrotation Yrotation
      JOINT Bip001_L_Calf
      {
        OFFSET -0.707118 -44.0221 0.360014
        CHANNELS 3 Zrotation Xrotation Yrotation
        JOINT Bip001_L_Foot
        {
          OFFSET -0.651902 -40.5938 -3.56146
          CHANNELS 3 Zrotation Xrotation Yrotation
          JOINT Bip001_L_Toe0
          {
            OFFSET 0.0530839 -10.2181 13.1504
            CHANNELS 3 Zrotation Xrotation Yrotation
            End Site
            {
              OFFSET -1.02532e-005 0 7.55606
            }
          }
        }
      }
    }
    JOINT Bip001_R_Thigh
    {
      OFFSET -11.0458 -10.2191 0.0115893
      CHANNELS 3 Zrotation Xrotation Yrotation
      JOINT Bip001_R_Calf
      {
        OFFSET 0.706994 -44.0221 0.35984
        CHANNELS 3 Zrotation Xrotation Yrotation
        JOINT Bip001_R_Foot
        {
          OFFSET 0.651786 -40.5938 -3.5613
          CHANNELS 3 Zrotation Xrotation Yrotation
          JOINT Bip001_R_Toe0
          {
            OFFSET -0.0531479 -10.2181 13.1504
            CHANNELS 3 Zrotation Xrotation Yrotation
            End Site
            {
              OFFSET -1.02894e-005 0 7.55606
            }
          }
        }
      }
    }
    JOINT Bip001_Spine1
    {
      OFFSET 1.87041e-005 14.5736 1.08638
      CHANNELS 3 Zrotation Xrotation Yrotation
      JOINT Bip001_Spine2
      {
        OFFSET 2.24614e-005 14.5058 -1.69078
        CHANNELS 3 Zrotation Xrotation Yrotation
        JOINT Bip001_Neck
        {
          OFFSET 2.20278e-005 15.3945 -0.489414
          CHANNELS 3 Zrotation Xrotation Yrotation
          JOINT Bip001_L_Clavicle
          {
            OFFSET 6.06036 -0.000579998 0.00836775
            CHANNELS 3 Zrotation Xrotation Yrotation
            JOINT Bip001_L_UpperArm
            {
              OFFSET 11.5509 -0.0600302 0.00193952
              CHANNELS 3 Zrotation Xrotation Yrotation
              JOINT Bip001_L_Forearm
              {
                OFFSET 25.9523 0.0806089 -2.15551
                CHANNELS 3 Zrotation Xrotation Yrotation
                JOINT Bip001_L_Hand
                {
                  OFFSET 32.2475 0.153767 1.63968
                  CHANNELS 3 Zrotation Xrotation Yrotation
                  JOINT Bip001_L_Finger0
                  {
                    OFFSET 6.04639 -2.20976 5.90322
                    CHANNELS 3 Zrotation Xrotation Yrotation
                    End Site
                    {
                      OFFSET 4.22375 -1.43895 0.606485
                    }
                  }
                  JOINT Bip001_L_Finger1
                  {
                    OFFSET 11.0826 -0.704819 -0.198153
                    CHANNELS 3 Zrotation Xrotation Yrotation
                    End Site
                    {
                      OFFSET 6.20027 -0.397518 -0.0787166
                    }
                  }
                }
              }
            }
          }
          JOINT Bip001_R_Clavicle
          {
            OFFSET -6.06037 -0.000563197 0.00835105
            CHANNELS 3 Zrotation Xrotation Yrotation
            JOINT Bip001_R_UpperArm
            {
              OFFSET -11.5509 -0.0599978 0.00190698
              CHANNELS 3 Zrotation Xrotation Yrotation
              JOINT Bip001_R_Forearm
              {
                OFFSET -25.9523 0.0806822 -2.15589
                CHANNELS 3 Zrotation Xrotation Yrotation
                JOINT Bip001_R_Hand
                {
                  OFFSET -32.2475 0.153859 1.63989
                  CHANNELS 3 Zrotation Xrotation Yrotation
                  JOINT Bip001_R_Finger0
                  {
                    OFFSET -6.04641 -2.20976 5.90317
                    CHANNELS 3 Zrotation Xrotation Yrotation
                    End Site
                    {
                      OFFSET -4.22376 -1.43895 0.60647
                    }
                  }
                  JOINT Bip001_R_Finger1
                  {
                    OFFSET -11.0826 -0.704794 -0.198182
                    CHANNELS 3 Zrotation Xrotation Yrotation
                    End Site
                    {
                      OFFSET -6.20028 -0.397504 -0.0787333
                    }
                  }
                }
              }
            }
          }
          JOINT Bip001_Head
          {
            OFFSET 1.09673e-005 11.2744 2.05948
            CHANNELS 3 Zrotation Xrotation Yrotation
            End Site
            {
              OFFSET 2.89576e-005 20.8808 -2.77728e-005
            }
          }
        }
      }
    }
  }
}
MOTION
Frames:	5
Frame Time:	0.04
34.6259 95.3838 -26.5708 -2.65236 4.55701 22.845 -0.671811 0.318313 0.896335 7.98405 -12.6366 2.97611 -1.00055 16.3549 -14.3595 -2.47961 -10.9843 -0.0700769 0.821241 -0.142202 -1.45784 0.238624 0.0277757 -15.8674 -1.95957 7.46761 -0.979647 -9.22523 -5.95574 -8.56207 3.42566 -11.1014 3.50783 -1.34891 0.626059 1.79643 -1.34874 0.626059 1.79642 3.14433 -12.2854 -6.47536 -26.6879 10.5649 6.53582 -67.4671 44.5858 26.6675 15.9746 -20.5251 -38.8278 7.82016 -0.396418 1.64733 1.59028e-015 -3.18055e-015 3.18055e-015 2.78299e-015 0 3.18055e-015 -2.38107 16.9104 45.1346 31.8876 -56.4023 55.5 -50.1727 12.7039 47.1009 -12.1041 -6.27712 5.09581 4.77083e-015 -6.36111e-015 1.59028e-015 3.18055e-015 -3.18056e-015 1.59028e-015 -3.24799 -2.54972 -4.93447 
34.365 95.3091 -26.504 -3.34953 4.80509 24.4121 -0.644523 0.259953 1.18941 8.51119 -13.9145 2.86954 -1.02479 17.1556 -16.043 -1.96616 -10.9362 -0.046664 1.02817 -0.5656 -1.59021 1.1399 -0.102107 -17.1497 -2.24179 7.03609 -0.80199 -9.45263 -5.68245 -8.97205 3.48118 -11.2219 3.50197 -1.29764 0.506407 2.38144 -1.29784 0.506561 2.38201 3.44498 -12.7307 -8.04928 -27.9609 9.91505 8.92313 -66.9055 45.1796 28.338 17.1109 -20.2992 -39.8766 7.08573 -0.136581 2.04334 1.98785e-015 -3.18055e-015 -1.59028e-015 6.36111e-015 -3.18056e-015 -1.59028e-015 -6.85436 15.5023 50.7887 4.78758 -44.0817 38.199 -40.1125 14.7417 21.6905 -12.3261 -5.74755 2.08839 -0 -3.18055e-015 -0 -0 -3.18056e-015 -0 -3.24529 -3.1015 -6.4003 
34.0889 95.2832 -26.314 -3.72387 4.91397 27.149 -0.689757 0.269745 1.31893 8.75641 -14.9127 2.40271 -1.06853 17.2772 -18.1807 -2.2507 -10.7971 -0.0618199 0.942231 -0.313902 -1.60794 2.081 0.250664 -21.1168 -2.99344 6.17824 -0.384167 -9.19635 -5.69714 -8.06717 3.50733 -11.262 3.4804 -1.3766 0.523734 2.63218 -1.37649 0.523675 2.63404 4.84025 -12.902 -10.3694 -29.943 8.49086 11.4556 -66.2451 45.5904 29.587 18.0734 -20.1778 -41.198 7.49566 0.120164 2.78439 -3.57812e-015 1.59028e-015 -3.18055e-015 -1.39149e-015 7.95139e-016 -3.18055e-015 -10.0032 14.3522 53.842 5.76045 -49.5331 41.1176 -41.494 22.8463 19.6599 -8.83868 -8.647 2.10258 -0 0 1.59028e-015 -0 0 1.59028e-015 -4.47591 -3.94583 -8.1741 
33.8864 95.2487 -26.1841 -3.97353 4.82137 30.3951 -0.7387 0.162989 1.22965 8.85868 -15.7804 3.0188 -0.725209 17.6036 -21.508 -3.59134 -11.2542 -0.124873 0.24463 0.90407 -1.09717 2.946 0.881851 -25.8122 -3.73597 5.38673 0.251858 -8.82481 -5.79102 -6.90645 3.53541 -11.3144 3.46381 -1.48015 0.309971 2.47148 -1.48003 0.310052 2.46772 7.71395 -12.5693 -12.4723 -30.9675 6.82417 13.0147 -68.9579 45.7219 32.0007 18.1855 -20.795 -42.114 8.96157 0.224326 3.41961 -4.17448e-015 7.95139e-016 -3.18055e-015 -3.27995e-015 0 -1.59028e-015 -13.9807 12.2519 53.3154 -3.5782 -48.7691 35.6666 -29.6968 16.5429 15.8411 -9.04097 -7.41033 3.18593 -8.82781e-032 -3.18055e-015 -1.59028e-015 3.18055e-015 -6.36111e-015 -3.18055e-015 -6.51832 -3.35134 -9.25969 
33.6572 95.2554 -26.2132 -4.36515 4.66462 32.7779 -0.591232 -0.00161233 0.911934 9.17196 -16.4899 4.2456 -0.864724 17.8953 -23.8759 -2.95129 -10.4569 -0.0756848 1.23672 0.252688 -2.12172 3.5616 1.13822 -27.5996 -4.04165 5.08752 0.564005 -8.85905 -5.42971 -7.13122 3.5596 -11.342 3.43497 -1.18234 -0.012465 1.82508 -1.18235 -0.0123477 1.82505 7.91013 -12.002 -13.6048 -30.7094 5.71631 13.9271 -70.8163 46.026 33.9906 17.7317 -21.2478 -42.4509 8.25975 0.220544 3.69625 -3.47873e-015 1.19271e-015 -1.59028e-015 1.98785e-015 7.95139e-016 -3.18055e-015 -18.416 8.16682 52.617 -16.9976 -34.4147 29.1211 -22.13 9.77951 3.18729 -14.8117 -9.66386 2.28617 -3.18055e-015 -6.36111e-015 -0 -6.36111e-015 -3.18056e-015 -1.59028e-015 -7.31198 -2.82981 -10.0062 
